<?xml version="1.0" encoding="UTF-8" standalone="no"?>
<!-- Created with Inkscape (http://www.inkscape.org/) -->

<svg
   xmlns:dc="http://purl.org/dc/elements/1.1/"
   xmlns:cc="http://creativecommons.org/ns#"
   xmlns:rdf="http://www.w3.org/1999/02/22-rdf-syntax-ns#"
   xmlns:svg="http://www.w3.org/2000/svg"
   xmlns="http://www.w3.org/2000/svg"
   xmlns:sodipodi="http://sodipodi.sourceforge.net/DTD/sodipodi-0.dtd"
   xmlns:inkscape="http://www.inkscape.org/namespaces/inkscape"
   width="155mm"
   height="56mm"
   viewBox="0 0 155 56"
   version="1.1"
   id="svg8"
   inkscape:version="0.92.5 (2060ec1f9f, 2020-04-08)"
   sodipodi:docname="logo.svg">
  <defs
     id="defs2">
    <clipPath
       id="clip0">
      <rect
         id="rect20"
         height="160"
         width="155"
         x="0"
         y="0"
         style="fill:#ffffff" />
    </clipPath>
    <clipPath
       id="a">
      <path
         id="path82"
         d="m 239.03,226.605 -42.13,24.317 c -1.578,0.91 -2.546,2.59 -2.546,4.406 v 48.668 c 0,1.817 0.968,3.496 2.546,4.406 l 42.133,24.336 c 1.575,0.907 3.517,0.907 5.09,0 l 42.126,-24.336 c 1.57,-0.91 2.54,-2.59 2.54,-4.406 v -48.668 c 0,-1.816 -0.97,-3.496 -2.55,-4.406 l -42.12,-24.317 c -0.79,-0.453 -1.67,-0.68 -2.55,-0.68 -0.88,0 -1.76,0.227 -2.55,0.68"
         inkscape:connector-curvature="0" />
    </clipPath>
    <linearGradient
       gradientUnits="userSpaceOnUse"
       gradientTransform="matrix(-38.064915,77.652126,-77.652126,-38.064915,258.72325,244.62943)"
       x2="1.251"
       x1="-0.34799999"
       id="b">
      <stop
         id="stop85"
         stop-color="#3E863D"
         offset=".3" />
      <stop
         id="stop87"
         stop-color="#55934F"
         offset=".5" />
      <stop
         id="stop89"
         stop-color="#5AAD45"
         offset=".8" />
    </linearGradient>
    <clipPath
       id="c">
      <path
         id="path92"
         d="m 195.398,307.086 c 0.403,0.523 0.907,0.976 1.5,1.316 l 36.14,20.875 6.02,3.46 c 0.9,0.52 1.926,0.74 2.934,0.665 0.336,-0.027 0.672,-0.09 1,-0.183 l 44.434,-81.36 c -0.34,-0.37 -0.738,-0.68 -1.184,-0.94 l -27.586,-15.93 -14.582,-8.39 c -0.414,-0.24 -0.863,-0.41 -1.32,-0.53 z m 0,0"
         inkscape:connector-curvature="0" />
    </clipPath>
    <linearGradient
       gradientUnits="userSpaceOnUse"
       gradientTransform="matrix(106.8057,-78.916731,78.916731,106.8057,235.18824,285.39477)"
       x2="0.58200002"
       x1="-0.456"
       id="d">
      <stop
         id="stop95"
         stop-color="#3E863D"
         offset=".57" />
      <stop
         id="stop97"
         stop-color="#619857"
         offset=".72" />
      <stop
         id="stop99"
         stop-color="#76AC64"
         offset="1" />
    </linearGradient>
    <clipPath
       id="e">
      <path
         id="path102"
         d="m 241.066,225.953 c -0.707,0.07 -1.398,0.29 -2.035,0.652 l -42.01,24.247 45.3,82.51 c 0.63,-0.09 1.25,-0.3 1.81,-0.624 l 42.13,-24.336 c 1.3,-0.754 2.19,-2.03 2.46,-3.476 l -46.18,-78.89 c -0.34,-0.067 -0.68,-0.102 -1.03,-0.102 -0.14,0 -0.28,0.007 -0.42,0.02"
         inkscape:connector-curvature="0" />
    </clipPath>
    <linearGradient
       gradientUnits="userSpaceOnUse"
       gradientTransform="matrix(97.417,0,0,97.417,192.862,279.652)"
       x2="0.98400003"
       x1="0.043000001"
       id="f">
      <stop
         id="stop105"
         stop-color="#6BBF47"
         offset=".16" />
      <stop
         id="stop107"
         stop-color="#79B461"
         offset=".38" />
      <stop
         id="stop109"
         stop-color="#75AC64"
         offset=".47" />
      <stop
         id="stop111"
         stop-color="#659E5A"
         offset=".7" />
      <stop
         id="stop113"
         stop-color="#3E863D"
         offset=".9" />
    </linearGradient>
  </defs>
  <sodipodi:namedview
     id="base"
     pagecolor="#ffffff"
     bordercolor="#666666"
     borderopacity="1.0"
     inkscape:pageopacity="0.0"
     inkscape:pageshadow="2"
     inkscape:zoom="0.80083178"
     inkscape:cx="188.62358"
     inkscape:cy="58.319465"
     inkscape:document-units="mm"
     inkscape:current-layer="layer1"
     showgrid="false"
     showguides="true"
     inkscape:guide-bbox="true"
     inkscape:snap-global="false"
     inkscape:window-width="1916"
     inkscape:window-height="1032"
     inkscape:window-x="0"
     inkscape:window-y="44"
     inkscape:window-maximized="1" />
  <metadata
     id="metadata5">
    <rdf:RDF>
      <cc:Work
         rdf:about="">
        <dc:format>image/svg+xml</dc:format>
        <dc:type
           rdf:resource="http://purl.org/dc/dcmitype/StillImage" />
        <dc:title></dc:title>
      </cc:Work>
    </rdf:RDF>
  </metadata>
  <g
     inkscape:label="Layer 1"
     inkscape:groupmode="layer"
     id="layer1"
     transform="translate(0,-241)">
    <text
       xml:space="preserve"
       style="font-style:normal;font-weight:normal;font-size:10.58333302px;line-height:1.25;font-family:sans-serif;letter-spacing:0px;word-spacing:0px;fill:#000000;fill-opacity:1;stroke:none;stroke-width:0.26458332"
       x="4.9973564"
       y="291.77661"
       id="text12"><tspan
         sodipodi:role="line"
         id="tspan10"
         x="4.9973564"
         y="291.77661"
         style="font-style:normal;font-variant:normal;font-weight:normal;font-stretch:normal;font-size:11.28888893px;font-family:Comfortaa;-inkscape-font-specification:Comfortaa;stroke-width:0.26458332"><tspan
   style="font-style:normal;font-variant:normal;font-weight:bold;font-stretch:normal;font-size:11.28888893px;font-family:Comfortaa;-inkscape-font-specification:'Comfortaa Bold'"
   id="tspan202">H</tspan>asura <tspan
   style="font-style:normal;font-variant:normal;font-weight:bold;font-stretch:normal;font-size:11.28888893px;font-family:Comfortaa;-inkscape-font-specification:'Comfortaa Bold'"
   id="tspan204">N</tspan>est <tspan
   style="font-style:normal;font-variant:normal;font-weight:bold;font-stretch:normal;font-size:11.28888893px;font-family:Comfortaa;-inkscape-font-specification:'Comfortaa Bold'"
   id="tspan206">R</tspan>eact <tspan
   style="font-style:normal;font-variant:normal;font-weight:bold;font-stretch:normal;font-size:11.28888893px;font-family:Comfortaa;-inkscape-font-specification:'Comfortaa Bold'"
   id="tspan208">N</tspan>ode</tspan></text>
    <g
       style="fill:none"
       id="g36"
       transform="matrix(0.19703364,0,0,0.19703364,6.0605417,246.26809)">
      <g
         id="g18"
         clip-path="url(#clip0)">
        <path
           id="path14"
           d="m 152.548,54.4799 c 4.599,-14.3408 1.835,-42.9827 -7.086,-53.550638 -1.164,-1.382716 -3.355,-1.185186 -4.322,0.335798 L 130.147,18.5293 c -2.724,3.4568 -7.619,4.2469 -11.29,1.837 C 106.936,12.5638 92.6861,8.02062 77.3703,8.02062 c -15.3158,0 -29.5658,4.54318 -41.4869,12.34568 -3.671,2.4099 -8.5658,1.6 -11.2894,-1.837 L 13.6005,1.26506 C 12.6334,-0.255924 10.4426,-0.453454 9.27817,0.929262 0.357115,11.4972 -2.40604,40.1391 2.19264,54.4799 c 1.51974,4.7605 1.95395,9.7975 1.04605,14.716 -0.88815,4.8593 -1.79605,10.7457 -1.79605,14.8148 0,41.9553 34.00656,75.9903 75.92766,75.9903 41.9407,0 75.9277,-34.015 75.9277,-75.9903 0,-4.0888 -0.888,-9.9555 -1.796,-14.8148 -0.908,-4.9185 -0.474,-9.9555 1.046,-14.716 z M 77.3703,143.013 c -32.4079,0 -58.7763,-26.39 -58.7763,-58.8245 0,-1.0666 0.0394,-2.1136 0.0789,-3.1605 1.1842,-22.1037 14.5855,-41.0074 33.5724,-50.0148 7.6184,-3.6346 16.1447,-5.6494 25.125,-5.6494 8.9802,0 17.5066,2.0346 25.1447,5.6692 18.987,9.0074 32.388,27.9111 33.572,49.995 0.06,1.0469 0.079,2.0939 0.079,3.1605 -0.019,32.4345 -26.388,58.8245 -58.7957,58.8245 z"
           inkscape:connector-curvature="0"
           style="fill:#111b29" />
        <path
           id="path16"
           d="M 102.83,106.825 87.8101,80.7704 74.9219,59.042 c -0.296,-0.5136 -0.8486,-0.8297 -1.4605,-0.8297 H 61.1456 c -0.6118,0 -1.1644,0.3359 -1.4605,0.8494 -0.2961,0.5334 -0.2961,1.1852 0.0197,1.6988 L 72.0206,81.5012 55.4812,106.746 c -0.3356,0.513 -0.375,1.185 -0.079,1.738 0.2961,0.553 0.8684,0.889 1.4803,0.889 h 12.3947 c 0.5724,0 1.1053,-0.296 1.4211,-0.771 l 8.9407,-13.9847 8.0132,13.9057 c 0.2961,0.534 0.8684,0.85 1.4605,0.85 H 101.33 c 0.612,0 1.164,-0.316 1.46,-0.85 0.356,-0.533 0.356,-1.165 0.04,-1.698 z"
           inkscape:connector-curvature="0"
           style="fill:#111b29" />
      </g>
    </g>
    <path
       id="path49"
       d="m 60.388898,246.55001 c -0.20957,0 -0.40415,0.0486 -0.58376,0.11341 0.38167,0.27541 0.59124,0.63994 0.69601,1.05306 0.008,0.0567 0.0225,0.0972 0.03,0.1539 0.008,0.0486 0.0149,0.0972 0.0149,0.14581 0.03,0.71286 -0.17213,0.80196 -0.31433,1.22318 -0.21703,0.54273 -0.15716,1.12597 0.10479,1.5958 0.0225,0.0567 0.0524,0.1215 0.0898,0.17821 -0.28441,-2.04942 1.29476,-2.35723 1.58663,-2.99719 0.0224,-0.55893 -0.40414,-0.93155 -0.74093,-1.19076 -0.32182,-0.21062 -0.6137,-0.27542 -0.88313,-0.27542 z m 2.37995,0.46172 c -0.03,0.18631 -0.008,0.13771 -0.0149,0.23492 -0.008,0.0647 -0.008,0.14581 -0.0149,0.21061 -0.015,0.0647 -0.03,0.12961 -0.0524,0.19442 -0.015,0.0647 -0.0374,0.1296 -0.0598,0.19441 -0.03,0.0647 -0.0524,0.1215 -0.0823,0.1863 -0.0225,0.0325 -0.0374,0.0647 -0.0598,0.0972 -0.0149,0.0244 -0.03,0.0486 -0.0449,0.0729 -0.0374,0.0567 -0.0748,0.1134 -0.11226,0.162 -0.0449,0.0486 -0.0823,0.10531 -0.13473,0.14582 v 0.008 c -0.0449,0.0405 -0.0898,0.0891 -0.14219,0.1296 -0.15717,0.12961 -0.33678,0.22682 -0.50144,0.34833 -0.0524,0.0405 -0.10477,0.0729 -0.14968,0.12151 -0.0524,0.0405 -0.0973,0.081 -0.14219,0.12959 -0.0524,0.0486 -0.0898,0.0972 -0.13472,0.15391 -0.0375,0.0486 -0.0823,0.10532 -0.11226,0.16203 -0.0374,0.0567 -0.0748,0.1134 -0.10478,0.1701 -0.03,0.0647 -0.0525,0.12151 -0.0823,0.18631 -0.0225,0.0647 -0.0449,0.12152 -0.0598,0.18632 -0.0226,0.0729 -0.0375,0.1377 -0.0524,0.2025 -0.008,0.0325 -0.008,0.0729 -0.015,0.10531 -0.008,0.0325 -0.008,0.0647 -0.0149,0.0972 0,0.0647 -0.008,0.13771 -0.008,0.20252 0,0.0486 0,0.0972 0.008,0.14579 0,0.0647 0.008,0.12961 0.0225,0.20252 0.008,0.0647 0.0225,0.1296 0.0374,0.19441 0.0225,0.0647 0.0374,0.12961 0.0598,0.19441 0.0149,0.0405 0.0375,0.081 0.0524,0.11341 l -1.72134,-0.72095 c -0.29188,-0.0891 -0.57628,-0.1701 -0.86816,-0.24301 -0.15716,-0.0404 -0.314332,-0.081 -0.471492,-0.124 -0.44905,-0.0972 -0.90558,-0.17011 -1.36211,-0.21871 -0.0149,0 -0.0225,-0.008 -0.0374,-0.008 -0.44906,-0.0486 -0.89061,-0.0729 -1.33966,-0.0729 -0.32931,0 -0.65861,0.0162 -0.98042,0.0405 -0.45654,0.0325 -0.91306,0.0972 -1.3696,0.1782 -0.11227,0.0162 -0.22453,0.0406 -0.33679,0.0647 -0.232,0.0486 -0.45653,0.1078 -0.67356,0.16451 -0.11227,0.0325 -0.22452,0.0647 -0.3368,0.0972 -0.11225,0.0486 -0.21702,0.10532 -0.32181,0.15392 -0.0823,0.0405 -0.16465,0.081 -0.24697,0.1215 -0.015,0.008 -0.03,0.008 -0.0374,0.0162 -0.0748,0.0405 -0.1422,0.0729 -0.20955,0.1134 -0.0225,0.008 -0.0375,0.0162 -0.0525,0.0243 -0.0823,0.0405 -0.16465,0.0891 -0.23201,0.12961 -0.0524,0.0244 -0.10476,0.0567 -0.14968,0.081 -0.0225,0.0162 -0.0524,0.0325 -0.0674,0.0405 -0.0674,0.0405 -0.13472,0.081 -0.1946,0.1215 -0.0674,0.0405 -0.12721,0.081 -0.17961,0.12152 -0.0524,0.0404 -0.10477,0.0729 -0.14969,0.1134 -0.008,0.008 -0.015,0.008 -0.0225,0.0162 -0.0449,0.0325 -0.0973,0.0729 -0.14218,0.11341 0,0 -0.008,0.008 -0.0149,0.0162 -0.0374,0.0325 -0.07483,0.0647 -0.112259,0.0972 -0.01492,0.008 -0.02991,0.0243 -0.0449,0.0325 -0.03744,0.0325 -0.07483,0.0729 -0.112265,0.10531 -0.0078,0.0162 -0.02253,0.0244 -0.02991,0.0325 -0.0449,0.0486 -0.08981,0.0891 -0.134715,0.13771 -0.0078,0 -0.0078,0.008 -0.01492,0.0162 -0.0449,0.0406 -0.08981,0.0891 -0.134715,0.1377 -0.0078,0.008 -0.0078,0.0162 -0.01492,0.0162 -0.03744,0.0405 -0.07483,0.081 -0.112257,0.12961 -0.01499,0.0162 -0.03744,0.0325 -0.05243,0.0486 -0.03744,0.0486 -0.08233,0.0972 -0.127235,0.14581 -0.0078,0.0162 -0.02245,0.0243 -0.02991,0.0405 -0.05989,0.0647 -0.112265,0.1296 -0.172134,0.19441 -0.0078,0.008 -0.01492,0.0162 -0.02245,0.0243 -0.119746,0.1377 -0.246973,0.27541 -0.38168,0.39692 -0.134723,0.1296 -0.276919,0.25111 -0.419115,0.35642 -0.149691,0.1134 -0.291887,0.21061 -0.449052,0.30782 -0.149677,0.0891 -0.306849,0.17011 -0.471503,0.24302 -0.157165,0.0729 -0.32181,0.1377 -0.486464,0.1944 -0.314345,0.0729 -0.636156,0.21061 -0.913066,0.23491 -0.05982,0 -0.127235,0.0162 -0.187104,0.0244 -0.06735,0.0162 -0.127234,0.0325 -0.187103,0.0486 -0.05989,0.0244 -0.119746,0.0486 -0.179623,0.0729 -0.05982,0.0244 -0.119745,0.0567 -0.179615,0.0891 -0.05243,0.0405 -0.112265,0.0729 -0.16466,0.11341 -0.05243,0.0405 -0.10477,0.0891 -0.149677,0.13771 -0.05243,0.0405 -0.104777,0.0972 -0.149677,0.1458 -0.0449,0.0567 -0.08982,0.10532 -0.127234,0.16201 -0.03744,0.0647 -0.08233,0.12152 -0.112265,0.18632 -0.03744,0.0567 -0.07483,0.1215 -0.104777,0.1863 -0.02991,0.0729 -0.05989,0.13772 -0.08233,0.21062 -0.02238,0.0647 -0.0449,0.13771 -0.06735,0.21062 -0.01499,0.0647 -0.02998,0.12961 -0.03744,0.19439 0,0.008 -0.0078,0.0162 -0.0078,0.0243 -0.01492,0.0729 -0.01492,0.17012 -0.02253,0.21873 -0.0078,0.0566 -0.01492,0.10529 -0.01492,0.16201 0,0.0325 0,0.0729 0.0078,0.1053 0.0078,0.0567 0.01492,0.1053 0.02991,0.15391 0.01492,0.0485 0.02998,0.0972 0.05243,0.1458 v 0.008 c 0.02253,0.0485 0.05243,0.0972 0.08233,0.14581 0.02991,0.0486 0.05989,0.0972 0.0973,0.14581 0.03744,0.0406 0.08233,0.0891 0.127226,0.1296 0.0449,0.0486 0.08982,0.0891 0.142196,0.12961 0.17963,0.17011 0.22453,0.22682 0.456534,0.35642 0.03744,0.0244 0.07483,0.0405 0.119753,0.0647 0.0078,0 0.01492,0.008 0.02252,0.008 0,0.0162 0,0.0244 0.0078,0.0405 0.0078,0.0647 0.02252,0.1296 0.03744,0.19441 0.01492,0.0729 0.03744,0.13771 0.05989,0.19441 0.02245,0.0486 0.03744,0.0972 0.05989,0.14581 0.0078,0.0162 0.01492,0.0325 0.02253,0.0405 0.02998,0.0647 0.05989,0.12152 0.08981,0.17822 0.03744,0.0567 0.07483,0.1134 0.112257,0.17012 0.03744,0.0486 0.08233,0.1053 0.127234,0.1539 0.0449,0.0486 0.08981,0.0891 0.142204,0.13771 0,0 0.0078,0.008 0.01492,0.008 0.0449,0.0406 0.08981,0.081 0.134715,0.1134 0.05243,0.0405 0.104776,0.0729 0.164645,0.10531 0.05243,0.0325 0.112265,0.0647 0.172135,0.0891 0.0449,0.0244 0.0973,0.0405 0.149684,0.0567 0.0078,0.008 0.01492,0.008 0.02998,0.0162 0.02991,0.008 0.06735,0.0162 0.09729,0.0244 -0.02245,0.43742 -0.02991,0.85055 0.02998,0.99636 0.06735,0.162 0.396657,-0.33213 0.725964,-0.89917 -0.0449,0.55894 -0.07483,1.21508 0,1.4095 0.08232,0.2025 0.531371,-0.42934 0.92054,-1.12598 5.306248,-1.32846 10.148478,2.64077 10.6574,8.2463 -0.0973,-0.87485 -1.092682,-1.36088 -1.549222,-1.23937 -0.22453,0.59944 -0.60622,1.36898 -1.2199,1.84691 0.0524,-0.53464 0.03,-1.08547 -0.0748,-1.6201 -0.16465,0.74524 -0.48647,1.44189 -0.92803,2.04132 -0.71099,0.0567 -1.42198,-0.31592 -1.79619,-0.87485 -0.03,-0.0243 -0.0375,-0.0729 -0.0598,-0.10531 -0.0225,-0.0567 -0.0449,-0.1134 -0.0598,-0.17011 -0.0225,-0.0567 -0.0374,-0.1134 -0.0449,-0.17011 -0.008,-0.0567 -0.008,-0.1134 -0.008,-0.1782 0,-0.0405 0,-0.081 0,-0.12151 0.008,-0.0567 0.0225,-0.11341 0.0375,-0.17012 0.0149,-0.0567 0.03,-0.1134 0.0524,-0.1701 0.03,-0.0567 0.0524,-0.11341 0.0898,-0.17012 0.12723,-0.38883 0.12723,-0.70474 -0.10478,-0.89105 -0.0449,-0.0325 -0.0898,-0.0567 -0.14221,-0.081 -0.03,-0.008 -0.0674,-0.0244 -0.0973,-0.0325 -0.0225,-0.008 -0.0374,-0.0162 -0.0598,-0.0244 -0.0525,-0.0162 -0.10479,-0.0325 -0.15718,-0.0405 -0.0524,-0.0163 -0.10477,-0.0244 -0.15716,-0.0244 -0.0524,-0.008 -0.11227,-0.0162 -0.16465,-0.0162 -0.0374,0 -0.0748,0.008 -0.11226,0.008 -0.0598,0 -0.11226,0.008 -0.16465,0.0243 -0.0524,0.008 -0.10477,0.0162 -0.15717,0.0325 -0.0525,0.0162 -0.10478,0.0325 -0.15718,0.0567 -0.0524,0.0243 -0.0973,0.0486 -0.14967,0.0729 -0.0449,0.0243 -0.0898,0.0567 -0.14219,0.081 -1.743806,1.23127 -0.70352,4.11505 0.48645,4.9494 -0.44903,0.0891 -0.90556,0.19441 -1.03279,0.29972 -0.008,0.008 -0.0149,0.0162 -0.0149,0.0162 0.32183,0.21061 0.65861,0.38883 1.01036,0.54273 0.47899,0.17012 0.98791,0.32402 1.21243,0.38883 v 0.008 c 0.62119,0.1377 1.24985,0.18631 1.886,0.14581 3.31547,-0.25112 6.032212,-2.98099 6.526162,-6.57761 0.0149,0.0729 0.03,0.13772 0.0449,0.21062 0.0225,0.1458 0.0524,0.29971 0.0674,0.45363 v 0.008 c 0.015,0.0729 0.0225,0.1458 0.03,0.2106 v 0.0325 c 0.008,0.0729 0.0149,0.14581 0.0149,0.21062 0.008,0.0891 0.015,0.17821 0.015,0.26731 v 0.1296 c 0,0.0406 0.008,0.0891 0.008,0.12962 0,0.0486 -0.008,0.0972 -0.008,0.1458 v 0.11341 c 0,0.0567 -0.008,0.1053 -0.008,0.16201 0,0.0325 0,0.0647 -0.008,0.1053 0,0.0567 -0.008,0.1134 -0.008,0.17821 -0.008,0.0244 -0.008,0.0486 -0.008,0.0729 -0.008,0.0647 -0.015,0.12151 -0.0226,0.18631 0,0.0243 0,0.0486 -0.008,0.0729 -0.008,0.081 -0.0225,0.15391 -0.03,0.23492 v 0.008 0.008 c -0.015,0.0729 -0.03,0.15391 -0.0449,0.22682 v 0.0244 c -0.0149,0.0729 -0.03,0.14581 -0.0449,0.21872 0,0.008 -0.008,0.0244 -0.008,0.0325 -0.0149,0.0729 -0.03,0.14582 -0.0524,0.21873 v 0.0243 c -0.0225,0.081 -0.0449,0.1539 -0.0598,0.22681 -0.008,0.008 -0.008,0.0162 -0.008,0.0162 -0.0224,0.081 -0.0449,0.16202 -0.0674,0.24302 -0.03,0.081 -0.0524,0.15391 -0.0823,0.23492 -0.03,0.081 -0.0525,0.16201 -0.0823,0.23491 -0.03,0.081 -0.0598,0.15391 -0.0898,0.23492 h -0.008 c -0.03,0.0729 -0.0598,0.15391 -0.0973,0.22681 -0.008,0.0244 -0.015,0.0405 -0.0226,0.0567 -0.008,0.008 -0.008,0.0163 -0.015,0.0244 -0.48647,1.06117 -1.20494,1.99272 -2.10304,2.72177 -0.0598,0.0406 -0.11974,0.0891 -0.17962,0.13769 -0.0149,0.0162 -0.0374,0.0244 -0.0524,0.0406 -0.0524,0.0405 -0.104782,0.081 -0.164652,0.1215 l 0.0225,0.0486 h 0.008 c 0.104762,-0.0162 0.209542,-0.0325 0.314332,-0.0486 h 0.008 c 0.19458,-0.0325 0.38917,-0.0729 0.58376,-0.11339 0.0524,-0.008 0.11226,-0.0244 0.16464,-0.0404 0.0374,-0.008 0.0674,-0.0163 0.10479,-0.0244 0.0524,-0.008 0.10478,-0.0244 0.15716,-0.0325 0.0449,-0.0162 0.0898,-0.0244 0.13472,-0.0405 0.74841,-0.19441 1.47438,-0.46173 2.1704,-0.77764 -1.18998,1.75779 -2.7841,3.17538 -4.647652,4.10694 0.86067,-0.0648 1.721352,-0.21871 2.552092,-0.47793 3.0161,-0.96396 5.55323,-3.15919 7.07249,-6.11587 -0.30684,1.87122 -0.99539,3.65333 -2.01322,5.20862 0.72596,-0.51844 1.39205,-1.11787 1.99826,-1.79831 1.67644,-1.89551 2.77661,-4.30135 3.15082,-6.88541 0.25446,1.27988 0.3293,2.60026 0.21702,3.90443 5.40356,-8.15719 0.44906,-16.61409 -1.62404,-18.84173 -0.008,-0.0162 -0.015,-0.0243 -0.015,-0.0405 -0.008,0.008 -0.008,0.008 -0.008,0.0162 0,-0.008 0,-0.008 -0.008,-0.0162 0,0.0972 -0.008,0.19442 -0.0149,0.29162 -0.0225,0.18632 -0.0449,0.36453 -0.0748,0.54274 -0.0374,0.17821 -0.0823,0.35641 -0.12723,0.53462 -0.0524,0.17011 -0.11226,0.34832 -0.17962,0.51843 -0.0674,0.16201 -0.14219,0.33213 -0.22452,0.49414 -0.0823,0.15391 -0.17214,0.31592 -0.26943,0.46172 -0.0973,0.15392 -0.20207,0.29972 -0.30686,0.43743 -0.11225,0.14581 -0.232,0.27542 -0.35175,0.40502 -0.0748,0.0729 -0.1422,0.13771 -0.21704,0.20252 -0.0598,0.0567 -0.11226,0.1053 -0.17213,0.162 -0.13472,0.11341 -0.26942,0.21872 -0.41912,0.31593 -0.14219,0.0972 -0.29188,0.19441 -0.44155,0.27541 -0.15718,0.081 -0.31433,0.15391 -0.47151,0.22681 -0.15717,0.0647 -0.32182,0.12151 -0.48647,0.17011 -0.16464,0.0486 -0.33678,0.0891 -0.50144,0.12151 -0.17212,0.0325 -0.34426,0.0485 -0.50891,0.0647 -0.11974,0.008 -0.2395,0.0162 -0.35925,0.0162 -0.17212,0 -0.34425,-0.0162 -0.5089,-0.0325 -0.17215,-0.0162 -0.34429,-0.0406 -0.50893,-0.081 -0.17214,-0.0325 -0.33678,-0.081 -0.50144,-0.13771 h -0.008 c 0.16465,-0.0162 0.3293,-0.0325 0.49395,-0.0647 0.17214,-0.0325 0.33679,-0.0729 0.50144,-0.12151 0.16464,-0.0486 0.3293,-0.10531 0.48645,-0.17011 0.16466,-0.0647 0.32183,-0.14581 0.47151,-0.22681 0.15717,-0.081 0.29937,-0.17011 0.44906,-0.26732 0.1422,-0.1053 0.28439,-0.21061 0.4191,-0.32402 0.13472,-0.1134 0.26195,-0.23491 0.38169,-0.36452 0.12724,-0.12151 0.23949,-0.25921 0.35176,-0.39693 0.11225,-0.1458 0.21703,-0.29161 0.31433,-0.43742 0.015,-0.0243 0.03,-0.0567 0.0449,-0.081 0.0748,-0.12962 0.14968,-0.25922 0.21704,-0.38883 0.0823,-0.16201 0.15716,-0.32402 0.22452,-0.49413 0.0674,-0.17011 0.12723,-0.34023 0.17962,-0.51844 0.0524,-0.17011 0.0898,-0.34832 0.12723,-0.52652 0.03,-0.18632 0.0598,-0.36453 0.0748,-0.54274 0.015,-0.18631 0.03,-0.37263 0.03,-0.55083 0,-0.12961 -0.008,-0.25921 -0.0149,-0.38883 -0.0149,-0.1863 -0.0374,-0.36451 -0.0598,-0.54272 -0.03,-0.18632 -0.0674,-0.36453 -0.11226,-0.54275 -0.0524,-0.1701 -0.10478,-0.3508 -0.16465,-0.52092 -0.0598,-0.17011 -0.13471,-0.34021 -0.20955,-0.50222 -0.0823,-0.16201 -0.16466,-0.32402 -0.25447,-0.47793 -0.0973,-0.15391 -0.19459,-0.29971 -0.29936,-0.44553 -0.11227,-0.1377 -0.22453,-0.27541 -0.34428,-0.41311 -0.0598,-0.0647 -0.12723,-0.13772 -0.19458,-0.20252 -0.33678,-0.28352 -0.68854,-0.55084 -1.04028,-0.79386 -0.0525,-0.0325 -0.0973,-0.0567 -0.1497,-0.081 -0.24697,-0.17011 -0.47898,-0.25921 -0.71099,-0.34022 z"
       inkscape:connector-curvature="0"
       style="fill:#e0234e;fill-rule:evenodd;stroke-width:0.12049302" />
    <g
       id="g68"
       transform="matrix(0.07122362,0,0,0.07160818,65.840538,241.21507)">
	<path
   id="path60"
   d="m 666.3,296.5 c 0,-32.5 -40.7,-63.3 -103.1,-82.4 14.4,-63.6 8,-114.2 -20.2,-130.4 -6.5,-3.8 -14.1,-5.6 -22.4,-5.6 v 22.3 c 4.6,0 8.3,0.9 11.4,2.6 13.6,7.8 19.5,37.5 14.9,75.7 -1.1,9.4 -2.9,19.3 -5.1,29.4 -19.6,-4.8 -41,-8.5 -63.5,-10.9 -13.5,-18.5 -27.5,-35.3 -41.6,-50 32.6,-30.3 63.2,-46.9 84,-46.9 V 78 c 0,0 0,0 0,0 -27.5,0 -63.5,19.6 -99.9,53.6 C 384.4,97.8 348.4,78.4 320.9,78.4 v 22.3 c 20.7,0 51.4,16.5 84,46.6 -14,14.7 -28,31.4 -41.3,49.9 -22.6,2.4 -44,6.1 -63.6,11 -2.3,-10 -4,-19.7 -5.2,-29 -4.7,-38.2 1.1,-67.9 14.6,-75.8 3,-1.8 6.9,-2.6 11.5,-2.6 V 78.5 c 0,0 0,0 0,0 -8.4,0 -16,1.8 -22.6,5.6 -28.1,16.2 -34.4,66.7 -19.9,130.1 -62.2,19.2 -102.7,49.9 -102.7,82.3 0,32.5 40.7,63.3 103.1,82.4 -14.4,63.6 -8,114.2 20.2,130.4 6.5,3.8 14.1,5.6 22.5,5.6 27.5,0 63.5,-19.6 99.9,-53.6 36.4,33.8 72.4,53.2 99.9,53.2 8.4,0 16,-1.8 22.6,-5.6 28.1,-16.2 34.4,-66.7 19.9,-130.1 62,-19.1 102.5,-49.9 102.5,-82.3 z M 536.1,229.8 c -3.7,12.9 -8.3,26.2 -13.5,39.5 -4.1,-8 -8.4,-16 -13.1,-24 -4.6,-8 -9.5,-15.8 -14.4,-23.4 14.2,2.1 27.9,4.7 41,7.9 z m -45.8,106.5 c -7.8,13.5 -15.8,26.3 -24.1,38.2 -14.9,1.3 -30,2 -45.2,2 -15.1,0 -30.2,-0.7 -45,-1.9 -8.3,-11.9 -16.4,-24.6 -24.2,-38 -7.6,-13.1 -14.5,-26.4 -20.8,-39.8 6.2,-13.4 13.2,-26.8 20.7,-39.9 7.8,-13.5 15.8,-26.3 24.1,-38.2 14.9,-1.3 30,-2 45.2,-2 15.1,0 30.2,0.7 45,1.9 8.3,11.9 16.4,24.6 24.2,38 7.6,13.1 14.5,26.4 20.8,39.8 -6.3,13.4 -13.2,26.8 -20.7,39.9 z m 32.3,-13 c 5.4,13.4 10,26.8 13.8,39.8 -13.1,3.2 -26.9,5.9 -41.2,8 4.9,-7.7 9.8,-15.6 14.4,-23.7 4.6,-8 8.9,-16.1 13,-24.1 z M 421.2,430 c -9.3,-9.6 -18.6,-20.3 -27.8,-32 9,0.4 18.2,0.7 27.5,0.7 9.4,0 18.7,-0.2 27.8,-0.7 -9,11.7 -18.3,22.4 -27.5,32 z m -74.4,-58.9 c -14.2,-2.1 -27.9,-4.7 -41,-7.9 3.7,-12.9 8.3,-26.2 13.5,-39.5 4.1,8 8.4,16 13.1,24 4.7,8 9.5,15.8 14.4,23.4 z M 420.7,163 c 9.3,9.6 18.6,20.3 27.8,32 -9,-0.4 -18.2,-0.7 -27.5,-0.7 -9.4,0 -18.7,0.2 -27.8,0.7 9,-11.7 18.3,-22.4 27.5,-32 z m -74,58.9 c -4.9,7.7 -9.8,15.6 -14.4,23.7 -4.6,8 -8.9,16 -13,24 -5.4,-13.4 -10,-26.8 -13.8,-39.8 13.1,-3.1 26.9,-5.8 41.2,-7.9 z m -90.5,125.2 c -35.4,-15.1 -58.3,-34.9 -58.3,-50.6 0,-15.7 22.9,-35.6 58.3,-50.6 8.6,-3.7 18,-7 27.7,-10.1 5.7,19.6 13.2,40 22.5,60.9 -9.2,20.8 -16.6,41.1 -22.2,60.6 -9.9,-3.1 -19.3,-6.5 -28,-10.2 z M 310,490 c -13.6,-7.8 -19.5,-37.5 -14.9,-75.7 1.1,-9.4 2.9,-19.3 5.1,-29.4 19.6,4.8 41,8.5 63.5,10.9 13.5,18.5 27.5,35.3 41.6,50 -32.6,30.3 -63.2,46.9 -84,46.9 -4.5,-0.1 -8.3,-1 -11.3,-2.7 z m 237.2,-76.2 c 4.7,38.2 -1.1,67.9 -14.6,75.8 -3,1.8 -6.9,2.6 -11.5,2.6 -20.7,0 -51.4,-16.5 -84,-46.6 14,-14.7 28,-31.4 41.3,-49.9 22.6,-2.4 44,-6.1 63.6,-11 2.3,10.1 4.1,19.8 5.2,29.1 z m 38.5,-66.7 c -8.6,3.7 -18,7 -27.7,10.1 -5.7,-19.6 -13.2,-40 -22.5,-60.9 9.2,-20.8 16.6,-41.1 22.2,-60.6 9.9,3.1 19.3,6.5 28.1,10.2 35.4,15.1 58.3,34.9 58.3,50.6 -0.1,15.7 -23,35.6 -58.4,50.6 z"
   inkscape:connector-curvature="0"
   style="fill:#61dafb" />

	<polygon
   id="polygon62"
   points=""
   style="fill:#61dafb" />

	<circle
   id="circle64"
   r="45.700001"
   cy="296.5"
   cx="420.89999"
   style="fill:#61dafb" />

	<polygon
   id="polygon66"
   points=""
   style="fill:#61dafb" />

</g>
    <g
       id="g196"
       transform="matrix(0.81430535,0,0,0.81430535,174.41206,14.685308)">
      <path
         id="path38"
         d="m -48.69681,324.24859 c -0.515054,0 -1.026581,-0.13511 -1.478136,-0.39511 l -4.704989,-2.78553 c -0.702732,-0.39299 -0.359832,-0.53199 -0.128058,-0.61207 0.936976,-0.32808 1.127123,-0.40217 2.127246,-0.97014 0.105128,-0.06 0.242711,-0.0388 0.350308,0.0247 l 3.614554,2.14489 c 0.130528,0.0706 0.315736,0.0706 0.436739,0 l 14.093445,-8.13504 c 0.13053,-0.0741 0.215196,-0.22578 0.215196,-0.381 v -16.26304 c 0,-0.16227 -0.08467,-0.30691 -0.218016,-0.38805 l -14.087803,-8.12799 c -0.130528,-0.0776 -0.303389,-0.0776 -0.433916,0 l -14.08498,8.12799 c -0.136524,0.0776 -0.223308,0.2293 -0.223308,0.38452 v 16.26303 c 0,0.15523 0.08467,0.30339 0.218722,0.37748 l 3.859382,2.22955 c 2.095496,1.04775 3.376077,-0.18697 3.376077,-1.42875 v -16.05136 c 0,-0.22931 0.179916,-0.4057 0.409222,-0.4057 h 1.785052 c 0.222249,0 0.405693,0.17639 0.405693,0.4057 v 16.05842 c 0,2.79399 -1.523997,4.39913 -4.173353,4.39913 -0.814915,0 -1.456969,0 -3.249077,-0.88194 l -3.697104,-2.13078 c -0.913693,-0.52917 -1.478137,-1.51694 -1.478137,-2.57175 v -16.26303 c 0,-1.05833 0.564444,-2.0461 1.478137,-2.56821 l 14.107557,-8.13857 c 0.892526,-0.50447 2.077857,-0.50447 2.963328,0 l 14.089917,8.1421 c 0.910167,0.52563 1.478137,1.50988 1.478137,2.56821 v 16.26303 c 0,1.05481 -0.56797,2.03905 -1.478137,2.56822 l -14.089917,8.13857 c -0.451555,0.26106 -0.963082,0.39511 -1.485192,0.39511"
         style="fill:#689f63;stroke-width:0.35277712"
         inkscape:connector-curvature="0" />
      <path
         id="path192"
         d="m -44.34354,313.04227 c -6.166544,0 -7.459473,-2.83068 -7.459473,-5.20487 0,-0.22578 0.182033,-0.4057 0.408163,-0.4057 h 1.820331 c 0.201082,0 0.370416,0.1464 0.402166,0.34502 0.275166,1.8549 1.093609,2.79046 4.822463,2.79046 2.970383,0 4.233326,-0.67098 4.233326,-2.24613 0,-0.90663 -0.359833,-1.58044 -4.974158,-2.03199 -3.859382,-0.381 -6.244155,-1.2312 -6.244155,-4.318 0,-2.84338 2.398884,-4.53671 6.417016,-4.53671 4.512019,0 6.748626,1.56633 7.030847,4.93183 0.01058,0.11641 -0.03175,0.2293 -0.10936,0.31397 -0.07761,0.0811 -0.186971,0.13052 -0.299861,0.13052 h -1.830913 c -0.1905,0 -0.356305,-0.13405 -0.39511,-0.3175 -0.440972,-1.95085 -1.506358,-2.57527 -4.402659,-2.57527 -3.242022,0 -3.619493,1.12889 -3.619493,1.97555 0,1.02658 0.444499,1.32645 4.818935,1.905 4.332104,0.57503 6.388794,1.38641 6.388794,4.43088 0,3.06916 -2.561162,4.82952 -7.02732,4.82952"
         style="fill:#689f63;stroke-width:0.35277712"
         inkscape:connector-curvature="0" />
    </g>
  </g>
</svg>
